<mxfile host="app.diagrams.net" agent="Mozilla/5.0 (Windows NT 10.0; Win64; x64) AppleWebKit/537.36 (KHTML, like Gecko) Chrome/128.0.0.0 Safari/537.36" version="24.7.16">
  <diagram name="Página-1" id="57W0ax9DJt8Ava33TofZ">
    <mxGraphModel dx="4018" dy="1135" grid="1" gridSize="10" guides="1" tooltips="1" connect="1" arrows="1" fold="1" page="1" pageScale="1" pageWidth="827" pageHeight="1169" math="0" shadow="0">
      <root>
        <mxCell id="0" />
        <mxCell id="1" parent="0" />
        <mxCell id="8pxjCKoayZh-OpHTb_VS-1" value="&lt;font style=&quot;font-size: 18px;&quot;&gt;Início do Projeto&lt;/font&gt;" style="ellipse;whiteSpace=wrap;html=1;" vertex="1" parent="1">
          <mxGeometry x="-220" y="330" width="120" height="80" as="geometry" />
        </mxCell>
        <mxCell id="8pxjCKoayZh-OpHTb_VS-6" style="edgeStyle=orthogonalEdgeStyle;rounded=0;orthogonalLoop=1;jettySize=auto;html=1;entryX=0;entryY=0.5;entryDx=0;entryDy=0;" edge="1" parent="1" source="8pxjCKoayZh-OpHTb_VS-2" target="8pxjCKoayZh-OpHTb_VS-4">
          <mxGeometry relative="1" as="geometry" />
        </mxCell>
        <mxCell id="8pxjCKoayZh-OpHTb_VS-2" value="&lt;div&gt;&lt;font style=&quot;font-size: 18px;&quot;&gt;Estruturação do Banco de Dados&lt;/font&gt;&lt;/div&gt;&lt;div&gt;&lt;font size=&quot;3&quot;&gt;Duração: 4 dias&lt;/font&gt;&lt;/div&gt;" style="rounded=0;whiteSpace=wrap;html=1;" vertex="1" parent="1">
          <mxGeometry x="190" y="325" width="120" height="90" as="geometry" />
        </mxCell>
        <mxCell id="8pxjCKoayZh-OpHTb_VS-10" style="edgeStyle=orthogonalEdgeStyle;rounded=0;orthogonalLoop=1;jettySize=auto;html=1;entryX=0;entryY=0.5;entryDx=0;entryDy=0;" edge="1" parent="1" source="8pxjCKoayZh-OpHTb_VS-4" target="8pxjCKoayZh-OpHTb_VS-8">
          <mxGeometry relative="1" as="geometry" />
        </mxCell>
        <mxCell id="8pxjCKoayZh-OpHTb_VS-4" value="&lt;font style=&quot;font-size: 18px;&quot;&gt;Backend: Criação de endpoint para cadastro de estudantes&lt;/font&gt;&lt;div&gt;&lt;font size=&quot;3&quot;&gt;Duração: 4 dias&lt;/font&gt;&lt;/div&gt;" style="rounded=0;whiteSpace=wrap;html=1;" vertex="1" parent="1">
          <mxGeometry x="400" y="200" width="180" height="110" as="geometry" />
        </mxCell>
        <mxCell id="8pxjCKoayZh-OpHTb_VS-11" style="edgeStyle=orthogonalEdgeStyle;rounded=0;orthogonalLoop=1;jettySize=auto;html=1;entryX=0;entryY=0.5;entryDx=0;entryDy=0;" edge="1" parent="1" source="8pxjCKoayZh-OpHTb_VS-5" target="8pxjCKoayZh-OpHTb_VS-9">
          <mxGeometry relative="1" as="geometry" />
        </mxCell>
        <mxCell id="8pxjCKoayZh-OpHTb_VS-5" value="&lt;font style=&quot;font-size: 18px;&quot;&gt;Frontend: Criação de tela de cadastro de estudantes&lt;/font&gt;&lt;div&gt;&lt;font size=&quot;3&quot;&gt;Duração: 10 dias&lt;/font&gt;&lt;/div&gt;" style="rounded=0;whiteSpace=wrap;html=1;" vertex="1" parent="1">
          <mxGeometry x="400" y="410" width="180" height="100" as="geometry" />
        </mxCell>
        <mxCell id="8pxjCKoayZh-OpHTb_VS-7" style="edgeStyle=orthogonalEdgeStyle;rounded=0;orthogonalLoop=1;jettySize=auto;html=1;entryX=0;entryY=0.6;entryDx=0;entryDy=0;entryPerimeter=0;" edge="1" parent="1" source="8pxjCKoayZh-OpHTb_VS-2" target="8pxjCKoayZh-OpHTb_VS-5">
          <mxGeometry relative="1" as="geometry" />
        </mxCell>
        <mxCell id="8pxjCKoayZh-OpHTb_VS-13" style="edgeStyle=orthogonalEdgeStyle;rounded=0;orthogonalLoop=1;jettySize=auto;html=1;entryX=0;entryY=0.5;entryDx=0;entryDy=0;" edge="1" parent="1" source="8pxjCKoayZh-OpHTb_VS-8" target="8pxjCKoayZh-OpHTb_VS-12">
          <mxGeometry relative="1" as="geometry" />
        </mxCell>
        <mxCell id="8pxjCKoayZh-OpHTb_VS-8" value="&lt;font style=&quot;font-size: 18px;&quot;&gt;Backend: Criação de endpoint para cadastro de professores&lt;/font&gt;&lt;div&gt;&lt;font size=&quot;3&quot;&gt;Duração: 3 dias&lt;/font&gt;&lt;/div&gt;" style="rounded=0;whiteSpace=wrap;html=1;" vertex="1" parent="1">
          <mxGeometry x="650" y="202.5" width="190" height="105" as="geometry" />
        </mxCell>
        <mxCell id="8pxjCKoayZh-OpHTb_VS-14" style="edgeStyle=orthogonalEdgeStyle;rounded=0;orthogonalLoop=1;jettySize=auto;html=1;entryX=0;entryY=0.5;entryDx=0;entryDy=0;" edge="1" parent="1" source="8pxjCKoayZh-OpHTb_VS-9" target="8pxjCKoayZh-OpHTb_VS-12">
          <mxGeometry relative="1" as="geometry" />
        </mxCell>
        <mxCell id="8pxjCKoayZh-OpHTb_VS-9" value="&lt;font style=&quot;font-size: 18px;&quot;&gt;Frontend: Criação de tela de cadastro de professores&lt;/font&gt;&lt;div&gt;&lt;font size=&quot;3&quot;&gt;Duração: 5 dias&lt;/font&gt;&lt;/div&gt;" style="rounded=0;whiteSpace=wrap;html=1;" vertex="1" parent="1">
          <mxGeometry x="820" y="410" width="170" height="100" as="geometry" />
        </mxCell>
        <mxCell id="8pxjCKoayZh-OpHTb_VS-17" style="edgeStyle=orthogonalEdgeStyle;rounded=0;orthogonalLoop=1;jettySize=auto;html=1;entryX=0;entryY=0.5;entryDx=0;entryDy=0;" edge="1" parent="1" source="8pxjCKoayZh-OpHTb_VS-12" target="8pxjCKoayZh-OpHTb_VS-15">
          <mxGeometry relative="1" as="geometry" />
        </mxCell>
        <mxCell id="8pxjCKoayZh-OpHTb_VS-35" style="edgeStyle=orthogonalEdgeStyle;rounded=0;orthogonalLoop=1;jettySize=auto;html=1;entryX=0;entryY=0.5;entryDx=0;entryDy=0;" edge="1" parent="1" source="8pxjCKoayZh-OpHTb_VS-12" target="8pxjCKoayZh-OpHTb_VS-34">
          <mxGeometry relative="1" as="geometry" />
        </mxCell>
        <mxCell id="8pxjCKoayZh-OpHTb_VS-12" value="&lt;font style=&quot;font-size: 18px;&quot;&gt;Testes de contrato de cadastro&lt;/font&gt;&lt;div&gt;&lt;font size=&quot;3&quot;&gt;Duração: 2 dias&lt;/font&gt;&lt;/div&gt;" style="rounded=0;whiteSpace=wrap;html=1;" vertex="1" parent="1">
          <mxGeometry x="1150" y="300" width="160" height="90" as="geometry" />
        </mxCell>
        <mxCell id="8pxjCKoayZh-OpHTb_VS-20" style="edgeStyle=orthogonalEdgeStyle;rounded=0;orthogonalLoop=1;jettySize=auto;html=1;" edge="1" parent="1" source="8pxjCKoayZh-OpHTb_VS-15" target="8pxjCKoayZh-OpHTb_VS-19">
          <mxGeometry relative="1" as="geometry" />
        </mxCell>
        <mxCell id="8pxjCKoayZh-OpHTb_VS-15" value="&lt;font style=&quot;font-size: 18px;&quot;&gt;Backend: Criação de endpoint para agenda de professor&lt;/font&gt;&lt;div&gt;&lt;font size=&quot;3&quot;&gt;Duração: 6 dias&lt;/font&gt;&lt;/div&gt;" style="rounded=0;whiteSpace=wrap;html=1;" vertex="1" parent="1">
          <mxGeometry x="1380" y="170" width="170" height="100" as="geometry" />
        </mxCell>
        <mxCell id="8pxjCKoayZh-OpHTb_VS-21" style="edgeStyle=orthogonalEdgeStyle;rounded=0;orthogonalLoop=1;jettySize=auto;html=1;entryX=0;entryY=0.5;entryDx=0;entryDy=0;" edge="1" parent="1" source="8pxjCKoayZh-OpHTb_VS-16" target="8pxjCKoayZh-OpHTb_VS-22">
          <mxGeometry relative="1" as="geometry">
            <mxPoint x="1990" y="450" as="targetPoint" />
          </mxGeometry>
        </mxCell>
        <mxCell id="8pxjCKoayZh-OpHTb_VS-16" value="&lt;font style=&quot;font-size: 18px;&quot;&gt;Frontend: Criação de tela para agenda de professor&lt;/font&gt;&lt;div&gt;&lt;font size=&quot;3&quot;&gt;Duração: 14 dias&lt;/font&gt;&lt;/div&gt;" style="rounded=0;whiteSpace=wrap;html=1;" vertex="1" parent="1">
          <mxGeometry x="1380" y="380" width="170" height="110" as="geometry" />
        </mxCell>
        <mxCell id="8pxjCKoayZh-OpHTb_VS-18" style="edgeStyle=orthogonalEdgeStyle;rounded=0;orthogonalLoop=1;jettySize=auto;html=1;entryX=0;entryY=0.625;entryDx=0;entryDy=0;entryPerimeter=0;" edge="1" parent="1" source="8pxjCKoayZh-OpHTb_VS-12" target="8pxjCKoayZh-OpHTb_VS-16">
          <mxGeometry relative="1" as="geometry" />
        </mxCell>
        <mxCell id="8pxjCKoayZh-OpHTb_VS-23" style="edgeStyle=orthogonalEdgeStyle;rounded=0;orthogonalLoop=1;jettySize=auto;html=1;entryX=0;entryY=0.5;entryDx=0;entryDy=0;" edge="1" parent="1" source="8pxjCKoayZh-OpHTb_VS-19" target="8pxjCKoayZh-OpHTb_VS-22">
          <mxGeometry relative="1" as="geometry" />
        </mxCell>
        <mxCell id="8pxjCKoayZh-OpHTb_VS-19" value="&lt;font style=&quot;font-size: 18px;&quot;&gt;Backend: Criação de endpoints de edição de agenda e horários&lt;/font&gt;&lt;div&gt;&lt;font size=&quot;3&quot;&gt;Duração: 3 dias&lt;/font&gt;&lt;/div&gt;" style="rounded=0;whiteSpace=wrap;html=1;" vertex="1" parent="1">
          <mxGeometry x="1670" y="165" width="160" height="110" as="geometry" />
        </mxCell>
        <mxCell id="8pxjCKoayZh-OpHTb_VS-29" style="edgeStyle=orthogonalEdgeStyle;rounded=0;orthogonalLoop=1;jettySize=auto;html=1;entryX=0;entryY=0.5;entryDx=0;entryDy=0;" edge="1" parent="1" source="8pxjCKoayZh-OpHTb_VS-22" target="8pxjCKoayZh-OpHTb_VS-24">
          <mxGeometry relative="1" as="geometry" />
        </mxCell>
        <mxCell id="8pxjCKoayZh-OpHTb_VS-30" style="edgeStyle=orthogonalEdgeStyle;rounded=0;orthogonalLoop=1;jettySize=auto;html=1;entryX=0;entryY=0.5;entryDx=0;entryDy=0;" edge="1" parent="1" source="8pxjCKoayZh-OpHTb_VS-22" target="8pxjCKoayZh-OpHTb_VS-28">
          <mxGeometry relative="1" as="geometry" />
        </mxCell>
        <mxCell id="8pxjCKoayZh-OpHTb_VS-22" value="&lt;font style=&quot;font-size: 18px;&quot;&gt;Teste de contrato de agenda&lt;/font&gt;&lt;div&gt;&lt;font size=&quot;3&quot;&gt;Duração: 2 dias&lt;/font&gt;&lt;/div&gt;" style="rounded=0;whiteSpace=wrap;html=1;" vertex="1" parent="1">
          <mxGeometry x="1990" y="270" width="150" height="90" as="geometry" />
        </mxCell>
        <mxCell id="8pxjCKoayZh-OpHTb_VS-32" style="edgeStyle=orthogonalEdgeStyle;rounded=0;orthogonalLoop=1;jettySize=auto;html=1;entryX=0;entryY=0.5;entryDx=0;entryDy=0;" edge="1" parent="1" source="8pxjCKoayZh-OpHTb_VS-24" target="8pxjCKoayZh-OpHTb_VS-31">
          <mxGeometry relative="1" as="geometry" />
        </mxCell>
        <mxCell id="8pxjCKoayZh-OpHTb_VS-24" value="&lt;font style=&quot;font-size: 18px;&quot;&gt;Backend: criação de endpoints de busca de aulas com filtros&lt;/font&gt;&lt;div&gt;&lt;font size=&quot;3&quot;&gt;Duração: 3 dias&lt;/font&gt;&lt;/div&gt;" style="rounded=0;whiteSpace=wrap;html=1;" vertex="1" parent="1">
          <mxGeometry x="2250" y="140" width="180" height="100" as="geometry" />
        </mxCell>
        <mxCell id="8pxjCKoayZh-OpHTb_VS-27" style="edgeStyle=orthogonalEdgeStyle;rounded=0;orthogonalLoop=1;jettySize=auto;html=1;entryX=0;entryY=0.5;entryDx=0;entryDy=0;" edge="1" parent="1" source="8pxjCKoayZh-OpHTb_VS-25" target="8pxjCKoayZh-OpHTb_VS-2">
          <mxGeometry relative="1" as="geometry" />
        </mxCell>
        <mxCell id="8pxjCKoayZh-OpHTb_VS-25" value="&lt;font style=&quot;font-size: 18px;&quot;&gt;Criação das Aplicações Base&lt;/font&gt;&lt;div&gt;&lt;font size=&quot;3&quot;&gt;Duração: 7 dias&lt;/font&gt;&lt;/div&gt;" style="rounded=0;whiteSpace=wrap;html=1;" vertex="1" parent="1">
          <mxGeometry x="-50" y="330" width="140" height="80" as="geometry" />
        </mxCell>
        <mxCell id="8pxjCKoayZh-OpHTb_VS-26" style="edgeStyle=orthogonalEdgeStyle;rounded=0;orthogonalLoop=1;jettySize=auto;html=1;entryX=0;entryY=0.5;entryDx=0;entryDy=0;" edge="1" parent="1" source="8pxjCKoayZh-OpHTb_VS-1" target="8pxjCKoayZh-OpHTb_VS-25">
          <mxGeometry relative="1" as="geometry" />
        </mxCell>
        <mxCell id="8pxjCKoayZh-OpHTb_VS-33" style="edgeStyle=orthogonalEdgeStyle;rounded=0;orthogonalLoop=1;jettySize=auto;html=1;entryX=0;entryY=0.5;entryDx=0;entryDy=0;" edge="1" parent="1" source="8pxjCKoayZh-OpHTb_VS-28" target="8pxjCKoayZh-OpHTb_VS-31">
          <mxGeometry relative="1" as="geometry" />
        </mxCell>
        <mxCell id="8pxjCKoayZh-OpHTb_VS-28" value="&lt;font style=&quot;font-size: 18px;&quot;&gt;Frontend: criação de tela de busca de agendas&lt;/font&gt;&lt;div&gt;&lt;font size=&quot;3&quot;&gt;Duração: 4 dias&lt;/font&gt;&lt;/div&gt;" style="rounded=0;whiteSpace=wrap;html=1;" vertex="1" parent="1">
          <mxGeometry x="2250" y="390" width="170" height="100" as="geometry" />
        </mxCell>
        <mxCell id="8pxjCKoayZh-OpHTb_VS-39" style="edgeStyle=orthogonalEdgeStyle;rounded=0;orthogonalLoop=1;jettySize=auto;html=1;" edge="1" parent="1" source="8pxjCKoayZh-OpHTb_VS-31" target="8pxjCKoayZh-OpHTb_VS-38">
          <mxGeometry relative="1" as="geometry" />
        </mxCell>
        <mxCell id="8pxjCKoayZh-OpHTb_VS-31" value="&lt;font style=&quot;font-size: 18px;&quot;&gt;Testes finais&lt;/font&gt;&lt;div&gt;&lt;font size=&quot;3&quot;&gt;Duração: 10 dias&lt;/font&gt;&lt;/div&gt;" style="rounded=0;whiteSpace=wrap;html=1;" vertex="1" parent="1">
          <mxGeometry x="2640" y="280" width="140" height="80" as="geometry" />
        </mxCell>
        <mxCell id="8pxjCKoayZh-OpHTb_VS-36" style="edgeStyle=orthogonalEdgeStyle;rounded=0;orthogonalLoop=1;jettySize=auto;html=1;" edge="1" parent="1" source="8pxjCKoayZh-OpHTb_VS-34" target="8pxjCKoayZh-OpHTb_VS-38">
          <mxGeometry relative="1" as="geometry">
            <mxPoint x="2840" y="670" as="targetPoint" />
          </mxGeometry>
        </mxCell>
        <mxCell id="8pxjCKoayZh-OpHTb_VS-34" value="&lt;font style=&quot;font-size: 18px;&quot;&gt;Testes Unitários&lt;/font&gt;&lt;div&gt;&lt;font size=&quot;3&quot;&gt;Duração: 30 dias&lt;/font&gt;&lt;/div&gt;" style="rounded=0;whiteSpace=wrap;html=1;" vertex="1" parent="1">
          <mxGeometry x="1360" y="620" width="150" height="90" as="geometry" />
        </mxCell>
        <mxCell id="8pxjCKoayZh-OpHTb_VS-38" value="&lt;font style=&quot;font-size: 18px;&quot;&gt;Fim do Projeto&lt;/font&gt;" style="ellipse;whiteSpace=wrap;html=1;" vertex="1" parent="1">
          <mxGeometry x="3040" y="280" width="120" height="80" as="geometry" />
        </mxCell>
      </root>
    </mxGraphModel>
  </diagram>
</mxfile>
